<svg width="132" height="36" viewBox="0 0 132 36" fill="none" xmlns="http://www.w3.org/2000/svg">
<path d="M108.527 14.1444L131 14.1444L131 36" stroke="black"/>
<path d="M1 35.7637V13.9081H23.4727" stroke="black"/>
<path d="M46.2223 19.648L46.2943 21.016C46.2943 21.368 46.1903 21.616 45.9823 21.76C45.7903 21.888 45.5903 21.952 45.3823 21.952C45.1903 21.952 44.9903 21.92 44.7823 21.856C44.4303 20 44.1583 17.688 43.9663 14.92C43.7903 12.152 43.6863 10.584 43.6543 10.216C43.8943 9.992 44.1423 9.88 44.3983 9.88C44.6703 9.88 44.9103 9.912 45.1183 9.976C45.1823 10.44 45.2303 11.464 45.2623 13.048C45.2943 14.632 45.3343 15.624 45.3823 16.024C45.6063 14.68 46.0063 13.424 46.5823 12.256C46.9023 11.6 47.3183 11.08 47.8303 10.696C48.3583 10.296 48.9183 10.096 49.5103 10.096C50.1183 10.096 50.6703 10.368 51.1663 10.912C51.6783 11.44 51.9343 11.92 51.9343 12.352C51.9343 12.512 51.8383 12.64 51.6463 12.736C51.4543 12.816 51.2383 12.856 50.9983 12.856C50.7743 12.856 50.5983 12.768 50.4703 12.592C50.3423 12.416 50.2543 12.224 50.2063 12.016C50.1583 11.792 50.0543 11.592 49.8943 11.416C49.7343 11.24 49.5183 11.152 49.2463 11.152C48.5263 11.152 47.9103 11.8 47.3983 13.096C46.6143 15.032 46.2223 17.216 46.2223 19.648ZM54.2583 17.128C54.2263 17.448 54.2103 17.664 54.2103 17.776C54.2103 18.736 54.4983 19.48 55.0743 20.008C55.6663 20.536 56.3623 20.8 57.1623 20.8C57.9623 20.8 58.6103 20.688 59.1063 20.464C59.6183 20.24 59.9863 20 60.2103 19.744C60.7863 19.024 61.3143 18.664 61.7943 18.664C61.9703 18.664 62.1783 18.712 62.4183 18.808C62.2583 19.592 61.6503 20.312 60.5943 20.968C59.5543 21.608 58.2423 21.928 56.6583 21.928C55.5383 21.928 54.5703 21.576 53.7543 20.872C52.9543 20.152 52.5543 19.176 52.5543 17.944C52.5543 16.712 52.7943 15.52 53.2743 14.368C53.7703 13.2 54.4743 12.208 55.3863 11.392C56.3143 10.56 57.2503 10.144 58.1943 10.144C59.1543 10.144 59.9223 10.344 60.4983 10.744C61.0903 11.128 61.3863 11.696 61.3863 12.448C61.3863 13.84 60.7623 14.992 59.5143 15.904C58.2823 16.8 56.9703 17.248 55.5783 17.248C55.2103 17.248 54.7703 17.208 54.2583 17.128ZM56.0823 16.336C56.8343 16.336 57.5063 16.096 58.0983 15.616C58.6903 15.136 59.1063 14.632 59.3463 14.104C59.6023 13.576 59.7303 13.096 59.7303 12.664C59.7303 12.232 59.5623 11.856 59.2263 11.536C58.8903 11.2 58.4983 11.032 58.0503 11.032C57.2503 11.032 56.5063 11.584 55.8183 12.688C55.1463 13.792 54.6663 14.936 54.3783 16.12C55.0823 16.264 55.6503 16.336 56.0823 16.336ZM70.4021 12.4C70.2581 12.032 69.9861 11.744 69.5861 11.536C69.1861 11.328 68.6901 11.224 68.0981 11.224C67.5061 11.224 66.9461 11.4 66.4181 11.752C65.9061 12.104 65.6501 12.576 65.6501 13.168C65.6501 13.76 65.8901 14.232 66.3701 14.584C66.8661 14.92 67.4581 15.176 68.1461 15.352C68.8501 15.528 69.5541 15.72 70.2581 15.928C70.9621 16.12 71.5541 16.448 72.0341 16.912C72.5301 17.36 72.7781 17.952 72.7781 18.688C72.7781 19.76 72.3301 20.576 71.4341 21.136C70.5541 21.696 69.4901 21.976 68.2421 21.976C67.5061 21.976 66.5381 21.776 65.3381 21.376C64.1541 20.976 63.5621 20.496 63.5621 19.936C63.5621 19.52 63.9141 19.312 64.6181 19.312C64.8261 19.312 65.0981 19.44 65.4341 19.696C66.4581 20.448 67.5061 20.824 68.5781 20.824C69.1541 20.824 69.6501 20.728 70.0661 20.536C70.8341 20.168 71.2181 19.576 71.2181 18.76C71.2181 18.264 70.9701 17.864 70.4741 17.56C69.9941 17.256 69.4021 17.016 68.6981 16.84C68.0101 16.664 67.3141 16.472 66.6101 16.264C65.9061 16.056 65.3061 15.712 64.8101 15.232C64.3301 14.736 64.0901 14.112 64.0901 13.36C64.0901 12.384 64.5301 11.592 65.4101 10.984C66.2901 10.376 67.3781 10.072 68.6741 10.072C69.5541 10.072 70.3461 10.304 71.0501 10.768C71.7701 11.216 72.1301 11.872 72.1301 12.736C72.1301 13.312 71.8021 13.6 71.1461 13.6C70.8741 13.6 70.6901 13.552 70.5941 13.456C70.5141 13.36 70.4661 13.192 70.4501 12.952C70.4501 12.696 70.4341 12.512 70.4021 12.4ZM76.0552 17.128C76.0232 17.448 76.0072 17.664 76.0072 17.776C76.0072 18.736 76.2952 19.48 76.8712 20.008C77.4632 20.536 78.1592 20.8 78.9592 20.8C79.7592 20.8 80.4072 20.688 80.9032 20.464C81.4152 20.24 81.7832 20 82.0072 19.744C82.5832 19.024 83.1112 18.664 83.5912 18.664C83.7672 18.664 83.9752 18.712 84.2152 18.808C84.0552 19.592 83.4472 20.312 82.3912 20.968C81.3512 21.608 80.0392 21.928 78.4552 21.928C77.3352 21.928 76.3672 21.576 75.5512 20.872C74.7512 20.152 74.3512 19.176 74.3512 17.944C74.3512 16.712 74.5912 15.52 75.0712 14.368C75.5672 13.2 76.2712 12.208 77.1832 11.392C78.1112 10.56 79.0472 10.144 79.9912 10.144C80.9512 10.144 81.7192 10.344 82.2952 10.744C82.8872 11.128 83.1832 11.696 83.1832 12.448C83.1832 13.84 82.5592 14.992 81.3112 15.904C80.0792 16.8 78.7672 17.248 77.3752 17.248C77.0072 17.248 76.5672 17.208 76.0552 17.128ZM77.8792 16.336C78.6312 16.336 79.3032 16.096 79.8952 15.616C80.4872 15.136 80.9032 14.632 81.1432 14.104C81.3992 13.576 81.5272 13.096 81.5272 12.664C81.5272 12.232 81.3592 11.856 81.0232 11.536C80.6872 11.2 80.2952 11.032 79.8472 11.032C79.0472 11.032 78.3032 11.584 77.6152 12.688C76.9432 13.792 76.4632 14.936 76.1752 16.12C76.8792 16.264 77.4472 16.336 77.8792 16.336ZM86.199 11.944C85.479 11.944 84.991 11.768 84.735 11.416C84.735 11.16 84.839 10.96 85.047 10.816C85.271 10.672 85.511 10.584 85.767 10.552C86.023 10.504 86.439 10.464 87.015 10.432C87.063 10 87.087 9.448 87.087 8.776C87.103 8.088 87.119 7.504 87.135 7.024C87.183 5.76 87.375 4.984 87.711 4.696C87.855 4.568 88.007 4.504 88.167 4.504C88.343 4.504 88.495 4.52 88.623 4.552C88.671 5.704 88.695 6.4 88.695 6.64L88.551 10.24C88.583 10.256 88.671 10.264 88.815 10.264L90.543 10.192C91.791 10.192 92.415 10.384 92.415 10.768C92.415 11.312 92.191 11.632 91.743 11.728C91.535 11.776 91.287 11.8 90.999 11.8C90.727 11.8 90.367 11.768 89.919 11.704C89.487 11.624 89.175 11.584 88.983 11.584C88.791 11.584 88.663 11.592 88.599 11.608C88.551 12.072 88.527 12.536 88.527 13C88.527 13.448 88.535 14.016 88.551 14.704C88.583 15.376 88.647 16.184 88.743 17.128C88.855 18.072 89.087 18.888 89.439 19.576C89.791 20.248 90.239 20.584 90.783 20.584C91.055 20.584 91.375 20.48 91.743 20.272C92.111 20.048 92.391 19.936 92.583 19.936C92.791 19.936 92.967 19.984 93.111 20.08C93.271 20.16 93.351 20.256 93.351 20.368C93.351 20.704 93.007 21.032 92.319 21.352C91.647 21.656 91.071 21.808 90.591 21.808C88.831 21.808 87.735 20.144 87.303 16.816C87.175 15.856 87.079 14.208 87.015 11.872C86.759 11.92 86.487 11.944 86.199 11.944Z" fill="black"/>
</svg>
